<?xml version="1.0" encoding="UTF-8" standalone="no"?>
<!DOCTYPE svg PUBLIC "-//W3C//DTD SVG 1.1//EN"
 "http://www.w3.org/Graphics/SVG/1.1/DTD/svg11.dtd">
<!-- Generated by graphviz version 2.43.0 (0)
 -->
<!-- Title: list Pages: 1 -->
<svg width="354pt" height="148pt"
 viewBox="0.00 0.00 354.00 148.00" xmlns="http://www.w3.org/2000/svg" xmlns:xlink="http://www.w3.org/1999/xlink">
<g id="graph0" class="graph" transform="scale(1 1) rotate(0) translate(4 144)">
<title>list</title>
<polygon fill="white" stroke="transparent" points="-4,4 -4,-144 350,-144 350,4 -4,4"/>
<text text-anchor="middle" x="173" y="-7" font-family="Arial" font-size="10.00">InteractMachine</text>
<!-- i -->
<g id="node1" class="node">
<title>i</title>
<ellipse fill="black" stroke="black" cx="7" cy="-84" rx="7" ry="7"/>
<text text-anchor="middle" x="7" y="-83.7" font-family="Times,serif" font-size="1.00">i</text>
</g>
<!-- start -->
<g id="node2" class="node">
<title>start</title>
<path fill="white" stroke="black" d="M93,-102C93,-102 63,-102 63,-102 57,-102 51,-96 51,-90 51,-90 51,-78 51,-78 51,-72 57,-66 63,-66 63,-66 93,-66 93,-66 99,-66 105,-72 105,-78 105,-78 105,-90 105,-90 105,-96 99,-102 93,-102"/>
<text text-anchor="middle" x="78" y="-81.5" font-family="Arial" font-size="10.00">Start</text>
</g>
<!-- i&#45;&gt;start -->
<g id="edge1" class="edge">
<title>i&#45;&gt;start</title>
<path fill="none" stroke="blue" d="M14.37,-84C20.57,-84 30.54,-84 40.71,-84"/>
<polygon fill="blue" stroke="blue" points="40.82,-87.5 50.82,-84 40.82,-80.5 40.82,-87.5"/>
</g>
<!-- show_info -->
<g id="node5" class="node">
<title>show_info</title>
<path fill="white" stroke="black" d="M213,-102C213,-102 177,-102 177,-102 171,-102 165,-96 165,-90 165,-90 165,-78 165,-78 165,-72 171,-66 177,-66 177,-66 213,-66 213,-66 219,-66 225,-72 225,-78 225,-78 225,-90 225,-90 225,-96 219,-102 213,-102"/>
<text text-anchor="middle" x="195" y="-81.5" font-family="Arial" font-size="10.00">Show info</text>
</g>
<!-- start&#45;&gt;show_info -->
<g id="edge6" class="edge">
<title>start&#45;&gt;show_info</title>
<path fill="none" stroke="blue" d="M105.1,-84C119.66,-84 138.11,-84 154.42,-84"/>
<polygon fill="blue" stroke="blue" points="154.77,-87.5 164.77,-84 154.77,-80.5 154.77,-87.5"/>
<text text-anchor="middle" x="135" y="-86.8" font-family="Arial" font-size="9.00">begin</text>
</g>
<!-- finish -->
<g id="node3" class="node">
<title>finish</title>
<path fill="white" stroke="black" d="M330,-59C330,-59 300,-59 300,-59 294,-59 288,-53 288,-47 288,-47 288,-35 288,-35 288,-29 294,-23 300,-23 300,-23 330,-23 330,-23 336,-23 342,-29 342,-35 342,-35 342,-47 342,-47 342,-53 336,-59 330,-59"/>
<path fill="none" stroke="black" d="M334,-63C334,-63 296,-63 296,-63 290,-63 284,-57 284,-51 284,-51 284,-31 284,-31 284,-25 290,-19 296,-19 296,-19 334,-19 334,-19 340,-19 346,-25 346,-31 346,-31 346,-51 346,-51 346,-57 340,-63 334,-63"/>
<text text-anchor="middle" x="315" y="-38.5" font-family="Arial" font-size="10.00">Finish</text>
</g>
<!-- help -->
<g id="node4" class="node">
<title>help</title>
<path fill="white" stroke="black" d="M330,-126C330,-126 300,-126 300,-126 294,-126 288,-120 288,-114 288,-114 288,-102 288,-102 288,-96 294,-90 300,-90 300,-90 330,-90 330,-90 336,-90 342,-96 342,-102 342,-102 342,-114 342,-114 342,-120 336,-126 330,-126"/>
<text text-anchor="middle" x="315" y="-105.5" font-family="Arial" font-size="10.00">Help</text>
</g>
<!-- help&#45;&gt;show_info -->
<g id="edge2" class="edge">
<title>help&#45;&gt;show_info</title>
<path fill="none" stroke="blue" d="M287.84,-92.97C280.95,-89.71 273.38,-86.73 266,-85 256.25,-82.71 245.53,-81.79 235.47,-81.6"/>
<polygon fill="blue" stroke="blue" points="235.28,-78.1 225.29,-81.63 235.3,-85.1 235.28,-78.1"/>
<text text-anchor="middle" x="254.5" y="-87.8" font-family="Arial" font-size="9.00">auto</text>
</g>
<!-- show_info&#45;&gt;finish -->
<g id="edge4" class="edge">
<title>show_info&#45;&gt;finish</title>
<path fill="none" stroke="blue" d="M224.41,-65.88C230.39,-62.58 236.77,-59.43 243,-57 252.71,-53.22 263.54,-50.21 273.75,-47.87"/>
<polygon fill="blue" stroke="blue" points="274.65,-51.26 283.7,-45.75 273.19,-44.41 274.65,-51.26"/>
<text text-anchor="middle" x="254.5" y="-69.8" font-family="Arial" font-size="9.00">input</text>
<text text-anchor="middle" x="254.5" y="-59.8" font-family="Arial" font-size="9.00">[exit]</text>
</g>
<!-- show_info&#45;&gt;help -->
<g id="edge3" class="edge">
<title>show_info&#45;&gt;help</title>
<path fill="none" stroke="blue" d="M225.03,-91.03C230.97,-92.4 237.18,-93.79 243,-95 254.36,-97.37 266.8,-99.73 278.05,-101.77"/>
<polygon fill="blue" stroke="blue" points="277.51,-105.23 287.97,-103.55 278.75,-98.34 277.51,-105.23"/>
<text text-anchor="middle" x="254.5" y="-111.8" font-family="Arial" font-size="9.00">input</text>
<text text-anchor="middle" x="254.5" y="-101.8" font-family="Arial" font-size="9.00">[help]</text>
</g>
<!-- show_info&#45;&gt;show_info -->
<g id="edge5" class="edge">
<title>show_info&#45;&gt;show_info</title>
<path fill="none" stroke="blue" d="M184.51,-102.15C182.89,-111.54 186.39,-120 195,-120 200.25,-120 203.59,-116.86 205.04,-112.28"/>
<polygon fill="blue" stroke="blue" points="208.55,-112.3 205.49,-102.15 201.55,-111.99 208.55,-112.3"/>
<text text-anchor="middle" x="195" y="-132.8" font-family="Arial" font-size="9.00">input</text>
<text text-anchor="middle" x="195" y="-122.8" font-family="Arial" font-size="9.00">[move]</text>
</g>
</g>
</svg>
