<?xml version="1.0" encoding="UTF-8" standalone="no"?>
<!DOCTYPE svg PUBLIC "-//W3C//DTD SVG 1.1//EN"
 "http://www.w3.org/Graphics/SVG/1.1/DTD/svg11.dtd">
<!-- Generated by graphviz version 2.43.0 (0)
 -->
<!-- Title: list Pages: 1 -->
<svg width="359pt" height="197pt"
 viewBox="0.00 0.00 359.00 197.00" xmlns="http://www.w3.org/2000/svg" xmlns:xlink="http://www.w3.org/1999/xlink">
<g id="graph0" class="graph" transform="scale(1 1) rotate(0) translate(4 193)">
<title>list</title>
<polygon fill="white" stroke="transparent" points="-4,4 -4,-193 355,-193 355,4 -4,4"/>
<text text-anchor="middle" x="175.5" y="-7" font-family="Arial" font-size="10.00">InteractMachine</text>
<!-- i -->
<g id="node1" class="node">
<title>i</title>
<ellipse fill="black" stroke="black" cx="7" cy="-104" rx="7" ry="7"/>
<text text-anchor="middle" x="7" y="-103.7" font-family="Times,serif" font-size="1.00">i</text>
</g>
<!-- start -->
<g id="node2" class="node">
<title>start</title>
<path fill="white" stroke="black" d="M93,-122C93,-122 63,-122 63,-122 57,-122 51,-116 51,-110 51,-110 51,-98 51,-98 51,-92 57,-86 63,-86 63,-86 93,-86 93,-86 99,-86 105,-92 105,-98 105,-98 105,-110 105,-110 105,-116 99,-122 93,-122"/>
<text text-anchor="middle" x="78" y="-101.5" font-family="Arial" font-size="10.00">Start</text>
</g>
<!-- i&#45;&gt;start -->
<g id="edge1" class="edge">
<title>i&#45;&gt;start</title>
<path fill="none" stroke="blue" d="M14.37,-104C20.57,-104 30.54,-104 40.71,-104"/>
<polygon fill="blue" stroke="blue" points="40.82,-107.5 50.82,-104 40.82,-100.5 40.82,-107.5"/>
</g>
<!-- show_info -->
<g id="node5" class="node">
<title>show_info</title>
<path fill="white" stroke="black" d="M213,-122C213,-122 177,-122 177,-122 171,-122 165,-116 165,-110 165,-110 165,-98 165,-98 165,-92 171,-86 177,-86 177,-86 213,-86 213,-86 219,-86 225,-92 225,-98 225,-98 225,-110 225,-110 225,-116 219,-122 213,-122"/>
<text text-anchor="middle" x="195" y="-101.5" font-family="Arial" font-size="10.00">Show info</text>
</g>
<!-- start&#45;&gt;show_info -->
<g id="edge7" class="edge">
<title>start&#45;&gt;show_info</title>
<path fill="none" stroke="blue" d="M105.1,-104C119.66,-104 138.11,-104 154.42,-104"/>
<polygon fill="blue" stroke="blue" points="154.77,-107.5 164.77,-104 154.77,-100.5 154.77,-107.5"/>
<text text-anchor="middle" x="135" y="-106.8" font-family="Arial" font-size="9.00">begin</text>
</g>
<!-- finish -->
<g id="node3" class="node">
<title>finish</title>
<path fill="white" stroke="black" d="M335,-122C335,-122 305,-122 305,-122 299,-122 293,-116 293,-110 293,-110 293,-98 293,-98 293,-92 299,-86 305,-86 305,-86 335,-86 335,-86 341,-86 347,-92 347,-98 347,-98 347,-110 347,-110 347,-116 341,-122 335,-122"/>
<path fill="none" stroke="black" d="M339,-126C339,-126 301,-126 301,-126 295,-126 289,-120 289,-114 289,-114 289,-94 289,-94 289,-88 295,-82 301,-82 301,-82 339,-82 339,-82 345,-82 351,-88 351,-94 351,-94 351,-114 351,-114 351,-120 345,-126 339,-126"/>
<text text-anchor="middle" x="320" y="-101.5" font-family="Arial" font-size="10.00">Finish</text>
</g>
<!-- help -->
<g id="node4" class="node">
<title>help</title>
<path fill="white" stroke="black" d="M335,-189C335,-189 305,-189 305,-189 299,-189 293,-183 293,-177 293,-177 293,-165 293,-165 293,-159 299,-153 305,-153 305,-153 335,-153 335,-153 341,-153 347,-159 347,-165 347,-165 347,-177 347,-177 347,-183 341,-189 335,-189"/>
<text text-anchor="middle" x="320" y="-168.5" font-family="Arial" font-size="10.00">Help</text>
</g>
<!-- help&#45;&gt;show_info -->
<g id="edge2" class="edge">
<title>help&#45;&gt;show_info</title>
<path fill="none" stroke="blue" d="M292.99,-156.83C275.84,-147.49 253.1,-135.1 233.94,-124.67"/>
<polygon fill="blue" stroke="blue" points="235.61,-121.59 225.15,-119.88 232.26,-127.74 235.61,-121.59"/>
<text text-anchor="middle" x="257" y="-145.8" font-family="Arial" font-size="9.00">auto</text>
</g>
<!-- show_info&#45;&gt;finish -->
<g id="edge5" class="edge">
<title>show_info&#45;&gt;finish</title>
<path fill="none" stroke="blue" d="M225.15,-104C241.03,-104 260.94,-104 278.33,-104"/>
<polygon fill="blue" stroke="blue" points="278.78,-107.5 288.78,-104 278.78,-100.5 278.78,-107.5"/>
<text text-anchor="middle" x="257" y="-116.8" font-family="Arial" font-size="9.00">input</text>
<text text-anchor="middle" x="257" y="-106.8" font-family="Arial" font-size="9.00">[exit]</text>
</g>
<!-- show_info&#45;&gt;help -->
<g id="edge4" class="edge">
<title>show_info&#45;&gt;help</title>
<path fill="none" stroke="blue" d="M207.33,-122.08C215.72,-133.91 228.22,-148.66 243,-157 254.99,-163.76 269.57,-167.35 282.74,-169.23"/>
<polygon fill="blue" stroke="blue" points="282.6,-172.74 292.93,-170.39 283.39,-165.78 282.6,-172.74"/>
<text text-anchor="middle" x="257" y="-179.8" font-family="Arial" font-size="9.00">input</text>
<text text-anchor="middle" x="257" y="-169.8" font-family="Arial" font-size="9.00">[help]</text>
</g>
<!-- round -->
<g id="node6" class="node">
<title>round</title>
<path fill="white" stroke="black" d="M335,-55C335,-55 305,-55 305,-55 299,-55 293,-49 293,-43 293,-43 293,-31 293,-31 293,-25 299,-19 305,-19 305,-19 335,-19 335,-19 341,-19 347,-25 347,-31 347,-31 347,-43 347,-43 347,-49 341,-55 335,-55"/>
<text text-anchor="middle" x="320" y="-34.5" font-family="Arial" font-size="10.00">Round</text>
</g>
<!-- show_info&#45;&gt;round -->
<g id="edge6" class="edge">
<title>show_info&#45;&gt;round</title>
<path fill="none" stroke="blue" d="M225.15,-88.12C242.85,-78.48 265.56,-66.11 284.2,-55.96"/>
<polygon fill="blue" stroke="blue" points="285.88,-59.03 292.99,-51.17 282.53,-52.88 285.88,-59.03"/>
<text text-anchor="middle" x="257" y="-88.8" font-family="Arial" font-size="9.00">input</text>
<text text-anchor="middle" x="257" y="-78.8" font-family="Arial" font-size="9.00">[move]</text>
</g>
<!-- round&#45;&gt;show_info -->
<g id="edge3" class="edge">
<title>round&#45;&gt;show_info</title>
<path fill="none" stroke="blue" d="M292.86,-27.02C277.45,-22.84 258.09,-20.65 243,-29 224.79,-39.08 212.7,-59.48 205.34,-76.46"/>
<polygon fill="blue" stroke="blue" points="202,-75.38 201.55,-85.97 208.51,-77.98 202,-75.38"/>
<text text-anchor="middle" x="257" y="-31.8" font-family="Arial" font-size="9.00">auto</text>
</g>
</g>
</svg>
